<?xml version="1.0" encoding="utf-8"?>
<!-- Generator: Adobe Illustrator 25.3.0, SVG Export Plug-In . SVG Version: 6.00 Build 0)  -->
<svg version="1.1" id="Capa_1" xmlns="http://www.w3.org/2000/svg" xmlns:xlink="http://www.w3.org/1999/xlink" x="0px" y="0px"
	 viewBox="0 0 24 20" style="enable-background:new 0 0 24 20;" xml:space="preserve">
<style type="text/css">
	.st0{fill:#FFFFFF;}
</style>
<path class="st0" d="M12,19c-3.2,0-6.4,0-9.6,0c-0.9,0-1.6-0.3-2.1-1.1c-0.2-0.3-0.3-0.6-0.3-1c0-4.6,0-9.2,0-13.8
	c0-0.8,0.7-1.7,1.4-1.9C1.8,1.1,2.2,1,2.6,1c6.3,0,12.6,0,19,0c0.3,0,0.6,0.1,0.9,0.2c0.3,0.1,0.6,0.3,0.8,0.5
	c0.2,0.2,0.4,0.5,0.5,0.8S24,3.1,24,3.4c0,4.4,0,8.8,0,13.2c0,0.3-0.1,0.6-0.2,0.9s-0.3,0.6-0.5,0.8c-0.2,0.2-0.5,0.4-0.8,0.5
	C22.2,19,21.9,19,21.6,19C18.4,19,15.2,19,12,19z M22.5,5.5c-0.2,0-0.3,0-0.4,0.1C21.6,6,21,6.4,20.4,6.8c-2.3,1.6-4.6,3.1-7,4.7
	c-0.9,0.6-1.8,0.7-2.7,0C9.8,10.9,8.9,10.3,8,9.7C6.1,8.4,4.3,7.2,2.4,6C2.1,5.8,1.8,5.6,1.5,5.4c0,0.1,0,0.2-0.1,0.3
	c0,3.7,0,7.4,0,11.1c0,0.6,0.2,0.8,0.8,0.8c0.1,0,0.2,0,0.3,0h18.8c0.2,0,0.4,0,0.6,0c0.1,0,0.1,0,0.2,0c0.1,0,0.1-0.1,0.2-0.1
	c0,0,0.1-0.1,0.1-0.2c0-0.1,0-0.1,0-0.2c0-0.2,0-0.4,0-0.6c0-3.5,0-6.9,0-10.4V5.5z M12,2.5H9.3c-2.3,0-4.7,0-7,0
	c-0.3,0-0.7,0-0.9,0.4c-0.1,0.2-0.1,0.4,0,0.6C1.6,3.7,1.7,3.9,1.9,4c0.6,0.4,1.2,0.8,1.8,1.2c2.6,1.7,5.2,3.5,7.8,5.2
	c0.2,0.2,0.5,0.3,0.9,0.1c0.4-0.3,0.9-0.5,1.3-0.8c2.2-1.5,4.4-3,6.6-4.5c0.6-0.4,1.3-0.9,1.9-1.3c0.4-0.2,0.3-0.6,0.3-0.9
	c-0.1-0.3-0.4-0.4-0.7-0.4c-0.2,0-0.3,0-0.5,0H12z"/>
</svg>