<?xml version="1.0" encoding="utf-8"?>
<!-- Generator: Adobe Illustrator 25.3.0, SVG Export Plug-In . SVG Version: 6.00 Build 0)  -->
<svg version="1.1" id="Capa_1" xmlns="http://www.w3.org/2000/svg" xmlns:xlink="http://www.w3.org/1999/xlink" x="0px" y="0px"
	 viewBox="0 0 24 25" style="enable-background:new 0 0 24 25;" xml:space="preserve">
<style type="text/css">
	.st0{fill:#FFFFFF;}
</style>
<path class="st0" d="M6.7,10.2c-0.1,3.6,3.4,7.1,7,7.1c0.4-1,0.8-1.9,1.2-2.9c0.3-0.8,0.6-1,1.4-0.6c1.5,0.6,2.9,1.2,4.4,1.8
	c0.9,0.4,1.9,0.8,2.8,1.1c0.1,0,0.3,0.1,0.3,0.3c0.1,0.1,0.1,0.3,0.1,0.4c0,2.1-0.9,3.8-2.5,5.2c-0.8,0.7-1.8,1.2-2.9,1.3
	c-1,0.1-1.9,0.2-2.9,0.1c-1.3-0.1-2.7-0.4-3.9-0.8c-2-0.7-3.9-1.7-5.5-3.1C4.5,18.6,3,16.9,2,14.8c-0.5-1-0.9-2.1-1.3-3.1
	c-0.3-0.9-0.5-1.9-0.6-2.9C0,7.9,0,7,0,6.1c0.1-1.3,0.6-2.6,1.5-3.6c0.9-1.1,2.1-1.8,3.4-2.2C5.5,0.1,6.1,0.1,6.7,0
	c0.4,0,0.6,0.3,0.7,0.6c0.5,1.3,1,2.6,1.5,4C9.4,5.7,9.9,6.8,10.3,8c0.2,0.4,0,0.8-0.4,1C8.9,9.4,7.8,9.8,6.7,10.2z M22.5,17.7
	l-6.3-2.5l-1.2,3c-0.2,0.4-0.4,0.7-0.9,0.6c-0.4,0-0.9-0.1-1.3-0.2c-0.6-0.1-1.2-0.2-1.8-0.4c-1.7-0.7-3.1-1.8-4.1-3.2
	s-1.6-3.2-1.6-5c0-0.5,0.2-0.8,0.7-0.9c1-0.4,1.9-0.8,2.9-1.2C8.8,7.7,8.7,7.6,8.6,7.5C7.9,5.6,7.1,3.7,6.4,1.8
	C6.3,1.5,6.1,1.5,5.9,1.5C5,1.6,4.2,1.9,3.5,2.5C2.4,3.4,1.6,4.5,1.5,6c-0.1,1.7,0,3.4,0.6,5.1c0.4,1,0.7,2.1,1.2,3.1
	c1.1,2,2.5,3.8,4.4,5.1c1.1,0.9,2.4,1.6,3.7,2.1c1.2,0.5,2.5,0.9,3.8,1c0.9,0.1,1.9,0.1,2.9,0c0.8-0.1,1.5-0.3,2.1-0.7
	c0.6-0.4,1.2-0.9,1.6-1.6C22.2,19.5,22.5,18.7,22.5,17.7z"/>
</svg>