<?xml version="1.0" encoding="utf-8"?>
<!-- Generator: Adobe Illustrator 25.3.0, SVG Export Plug-In . SVG Version: 6.00 Build 0)  -->
<svg version="1.1" id="Capa_1" xmlns="http://www.w3.org/2000/svg" xmlns:xlink="http://www.w3.org/1999/xlink" x="0px" y="0px"
	 viewBox="0 0 36 36" style="enable-background:new 0 0 36 36;" xml:space="preserve">
<style type="text/css">
	.st0{clip-path:url(#SVGID_2_);}
	.st1{fill:#FFFFFF;}
	.st2{fill:#004C47;}
</style>
<g>
	<defs>
		<rect id="SVGID_1_" x="0.1" y="0" width="35" height="35"/>
	</defs>
	<clipPath id="SVGID_2_">
		<use xlink:href="#SVGID_1_"  style="overflow:visible;"/>
	</clipPath>
	<g class="st0">
		<path class="st1" d="M0.1,17.5C0.1,7.9,8,0,17.6,0c2.3,0,4.6,0.5,6.7,1.3c2.1,0.9,4.1,2.2,5.7,3.8c1.6,1.6,2.9,3.6,3.8,5.7
			c0.9,2.1,1.3,4.4,1.3,6.7c0,2.3-0.5,4.6-1.3,6.7c-0.9,2.1-2.2,4.1-3.8,5.7c-1.6,1.6-3.6,2.9-5.7,3.8c-2.1,0.9-4.4,1.3-6.7,1.3
			C8,35,0.1,27.2,0.1,17.5z M7.9,7.2L7.7,7.3c2.5,3.8,5.2,7.5,7.7,11.3c-1.3,1.5-2.6,3-3.8,4.5c-1.2,1.4-2.4,2.8-3.6,4.2
			c-0.1,0.1,0,0.3,0,0.5c0.5,0,1.2,0.2,1.6-0.3c0.6-0.7,1.2-1.5,1.8-2.2c1.5-1.7,3-3.4,4.5-5.1c0.2-0.3,0.4-0.4,0.6,0
			c1.6,2.4,3.2,4.7,4.8,7.1c0.1,0.2,0.3,0.3,0.4,0.4c0.2,0.1,0.4,0.1,0.6,0.1c1.4,0,2.8,0,4.2,0c0.3,0,0.5-0.1,0.8-0.2
			c-0.1-0.2-0.2-0.5-0.3-0.7c0-0.1-0.1-0.1-0.2-0.2c-1.1-1.6-2.2-3.3-3.3-4.9c-1.3-2-2.7-3.9-4.1-5.9L27,7.2c-1-0.1-1.7-0.1-2.4,0.7
			c-1.7,2.1-3.6,4.2-5.4,6.3c-0.5,0.6-0.6,0.5-1.1-0.2c-1.4-2.2-2.9-4.3-4.4-6.4c-0.1-0.1-0.2-0.2-0.3-0.3c-0.1-0.1-0.2-0.1-0.3-0.1
			C11.4,7.2,9.7,7.2,7.9,7.2z"/>
		<path class="st2" d="M7.9,7.2c1.8,0,3.5,0,5.3,0c0.1,0,0.2,0.1,0.3,0.1c0.1,0.1,0.2,0.2,0.3,0.3c1.5,2.1,2.9,4.3,4.4,6.4
			c0.5,0.7,0.6,0.7,1.1,0.2c1.8-2.1,3.6-4.1,5.4-6.3C25.3,7.1,26,7.1,27,7.2l-7.5,8.7c1.4,2,2.7,4,4.1,5.9c1.1,1.6,2.2,3.3,3.3,4.9
			c0,0.1,0.1,0.1,0.2,0.2c0.1,0.2,0.2,0.5,0.3,0.7c-0.3,0.1-0.5,0.1-0.8,0.2c-1.4,0-2.8,0-4.2,0c-0.2,0-0.4,0-0.6-0.1
			c-0.2-0.1-0.3-0.2-0.4-0.4c-1.6-2.4-3.2-4.7-4.8-7.1c-0.2-0.4-0.4-0.3-0.6,0c-1.5,1.7-3,3.4-4.5,5.1c-0.6,0.7-1.2,1.5-1.8,2.2
			C9.2,28,8.5,27.8,8,27.8c0-0.2-0.1-0.4,0-0.5c1.2-1.4,2.4-2.8,3.6-4.2c1.3-1.5,2.5-3,3.8-4.5c-2.5-3.8-5.2-7.5-7.7-11.3L7.9,7.2z
			 M25.2,26.5c0-0.1-0.1-0.3-0.2-0.4c-1.3-1.8-2.5-3.6-3.8-5.4c-1.2-1.7-2.4-3.3-3.5-5c-1.6-2.3-3.1-4.5-4.7-6.8
			c-0.1-0.2-0.4-0.4-0.6-0.4c-0.7-0.1-1.4,0-2.3,0c0.1,0.2,0.2,0.4,0.3,0.6c2.2,3.2,4.4,6.4,6.7,9.5c1.7,2.4,3.3,4.8,5,7.2
			c0.2,0.3,0.5,0.6,0.8,0.7C23.6,26.6,24.4,26.6,25.2,26.5z"/>
		<path class="st1" d="M25.2,26.5c-0.8,0-1.6,0-2.3,0c-0.3,0-0.6-0.4-0.8-0.7c-1.7-2.4-3.3-4.8-5-7.2c-2.2-3.2-4.4-6.4-6.7-9.5
			c-0.1-0.2-0.2-0.4-0.3-0.6c0.8,0,1.6,0,2.3,0C12.6,8.6,12.9,8.7,13,9c1.6,2.3,3.1,4.5,4.7,6.8c1.2,1.7,2.4,3.4,3.5,5
			c1.3,1.8,2.5,3.6,3.8,5.4C25.1,26.3,25.1,26.4,25.2,26.5z"/>
	</g>
</g>
</svg>
