<?xml version="1.0" encoding="utf-8"?>
<!-- Generator: Adobe Illustrator 25.3.0, SVG Export Plug-In . SVG Version: 6.00 Build 0)  -->
<svg version="1.1" id="Capa_1" xmlns="http://www.w3.org/2000/svg" xmlns:xlink="http://www.w3.org/1999/xlink" x="0px" y="0px"
	 viewBox="0 0 36 36" style="enable-background:new 0 0 36 36;" xml:space="preserve">
<style type="text/css">
	.st0{fill:#FFFFFF;}
</style>
<path class="st0" d="M17.8,0c2.5,0,4.8,0.5,6.9,1.4c2.2,0.9,4,2.2,5.6,3.8c1.6,1.6,2.9,3.5,3.8,5.6c0.9,2.2,1.4,4.5,1.4,6.9
	c0,2.5-0.5,4.8-1.4,6.9c-0.9,2.2-2.2,4-3.8,5.6c-1.6,1.6-3.5,2.9-5.6,3.8c-2.2,0.9-4.5,1.4-6.9,1.4s-4.8-0.5-6.9-1.4
	c-2.2-0.9-4-2.2-5.6-3.8s-2.9-3.5-3.8-5.6c-0.9-2.2-1.4-4.5-1.4-6.9c0-2.5,0.5-4.8,1.4-6.9c0.9-2.2,2.2-4,3.8-5.6
	c1.6-1.6,3.5-2.9,5.6-3.8C13,0.5,15.4,0,17.8,0z M17.3,29.1c0.8,0,1.6-0.1,2.4-0.4c0.7-0.3,1.4-0.6,1.9-1c0.6-0.4,1-0.9,1.3-1.5
	c0.3-0.6,0.5-1.2,0.5-1.8c0-0.6-0.2-1.2-0.5-1.8c-0.3-0.6-0.8-1.1-1.3-1.5c-0.6-0.4-1.2-0.8-1.9-1c-0.7-0.3-1.5-0.4-2.4-0.4
	c-0.1,0-0.2,0-0.3,0c-0.1,0-0.2,0-0.2,0c-0.1-0.3-0.2-0.7-0.2-1c0-0.2,0-0.4,0-0.7c0-0.2,0.1-0.4,0.1-0.4h0.2c0.7,0,1.4-0.1,2-0.4
	s1.1-0.6,1.6-1.1c0.5-0.5,0.8-1,1.1-1.6c0.3-0.6,0.4-1.3,0.4-1.9c0-0.3-0.1-0.7-0.2-1c-0.1-0.4-0.3-0.7-0.5-0.8l1.8-1V6.5l-3.7,2
	c-0.8-0.6-1.7-0.8-2.7-0.8c-0.7,0-1.4,0.1-2,0.4c-0.6,0.3-1.1,0.6-1.6,1.1c-0.5,0.5-0.8,1-1.1,1.6c-0.3,0.6-0.4,1.3-0.4,1.9
	c0,0.8,0.2,1.5,0.5,2.2c0.3,0.7,0.8,1.2,1.4,1.7c-0.3,0.7-0.5,1.4-0.5,2.2c0,0.3,0,0.7,0.1,1c0.1,0.3,0.2,0.6,0.3,1
	c-0.7,0.4-1.3,1-1.8,1.6c-0.5,0.7-0.7,1.3-0.7,2.1c0,0.7,0.2,1.3,0.5,1.8c0.3,0.6,0.8,1.1,1.3,1.5c0.6,0.4,1.2,0.8,1.9,1
	C15.6,28.9,16.4,29.1,17.3,29.1z M17.3,22.6c0.8,0,1.4,0.2,1.9,0.5c0.5,0.4,0.8,0.8,0.8,1.3c0,0.5-0.3,0.9-0.8,1.3
	c-0.5,0.4-1.2,0.5-1.9,0.5c-0.7,0-1.4-0.2-1.9-0.5c-0.5-0.4-0.8-0.8-0.8-1.3c0-0.5,0.3-0.9,0.8-1.3C15.9,22.7,16.5,22.6,17.3,22.6z
	 M16.9,15c-0.7,0-1.2-0.2-1.7-0.7c-0.5-0.5-0.7-1-0.7-1.7c0-0.7,0.2-1.2,0.7-1.7c0.5-0.5,1-0.7,1.7-0.7c0.7,0,1.2,0.2,1.7,0.7
	c0.5,0.5,0.7,1,0.7,1.7c0,0.7-0.2,1.2-0.7,1.7C18.1,14.8,17.6,15,16.9,15z"/>
</svg>
