<?xml version="1.0" encoding="utf-8"?>
<!-- Generator: Adobe Illustrator 25.3.0, SVG Export Plug-In . SVG Version: 6.00 Build 0)  -->
<svg version="1.1" id="Capa_1" xmlns="http://www.w3.org/2000/svg" xmlns:xlink="http://www.w3.org/1999/xlink" x="0px" y="0px"
	 viewBox="0 0 37 36" style="enable-background:new 0 0 37 36;" xml:space="preserve">
<style type="text/css">
	.st0{fill:#FFFFFF;}
</style>
<path class="st0" d="M18.3,0c2.5,0,4.8,0.5,6.9,1.4c2.2,0.9,4,2.2,5.7,3.8c1.6,1.6,2.9,3.5,3.8,5.6c0.9,2.1,1.4,4.4,1.4,6.9
	c0,2.5-0.5,4.8-1.4,6.9c-0.9,2.2-2.2,4-3.8,5.7c-1.6,1.6-3.5,2.9-5.7,3.8c-2.2,0.9-4.5,1.4-6.9,1.4c-2.5,0-4.8-0.5-6.9-1.4
	c-2.1-0.9-4-2.2-5.6-3.8c-1.6-1.6-2.9-3.5-3.8-5.7c-0.9-2.2-1.4-4.5-1.4-6.9c0-2.5,0.5-4.8,1.4-6.9c0.9-2.1,2.2-4,3.8-5.6
	c1.6-1.6,3.5-2.9,5.6-3.8C13.6,0.5,15.9,0,18.3,0z M25,7.8h-3.8c-0.7,0-1.4,0.1-2,0.4c-0.6,0.3-1.2,0.6-1.6,1s-0.8,0.9-1.1,1.4
	c-0.3,0.5-0.4,1.1-0.4,1.6v2.2h-3.3v4.4h3.3v8.9h4.4v-8.9h3.3v-4.4h-3.3v-1.1c0-0.3,0.1-0.6,0.4-0.8c0.3-0.2,0.5-0.3,0.7-0.3H25V7.8
	z"/>
</svg>
