<?xml version="1.0" encoding="utf-8"?>
<!-- Generator: Adobe Illustrator 25.3.0, SVG Export Plug-In . SVG Version: 6.00 Build 0)  -->
<svg version="1.1" id="Capa_1" xmlns="http://www.w3.org/2000/svg" xmlns:xlink="http://www.w3.org/1999/xlink" x="0px" y="0px"
	 viewBox="0 0 36 36" style="enable-background:new 0 0 36 36;" xml:space="preserve">
<style type="text/css">
	.st0{fill:#FFFFFF;}
</style>
<path class="st0" d="M17.7,0c2.5,0,4.8,0.5,6.9,1.4c2.2,0.9,4,2.2,5.6,3.8c1.6,1.6,2.9,3.5,3.8,5.6c0.9,2.2,1.4,4.5,1.4,6.9
	c0,2.5-0.5,4.8-1.4,6.9c-0.9,2.2-2.2,4-3.8,5.6c-1.6,1.6-3.5,2.9-5.6,3.8c-2.2,0.9-4.5,1.4-6.9,1.4s-4.8-0.5-6.9-1.4
	c-2.2-0.9-4-2.2-5.6-3.8s-2.9-3.5-3.8-5.6C0.5,22.5,0,20.2,0,17.8c0-2.5,0.5-4.8,1.4-6.9c0.9-2.2,2.2-4,3.8-5.6
	c1.6-1.6,3.5-2.9,5.6-3.8C13,0.5,15.3,0,17.7,0z M12.2,13.3H7.8v14.4h4.5V13.3z M10,12.2c0.6,0,1.2-0.2,1.6-0.6
	c0.4-0.4,0.7-0.9,0.7-1.6c0-0.6-0.2-1.1-0.7-1.6c-0.4-0.4-1-0.6-1.6-0.6S8.8,8,8.4,8.4C8,8.8,7.8,9.4,7.8,10c0,0.6,0.2,1.1,0.6,1.6
	C8.8,12,9.4,12.2,10,12.2z M27.8,19.4c0-1-0.3-2-0.8-3c-0.6-1-1.3-1.7-2.2-2.2c-0.8-0.5-1.8-0.7-2.9-0.7c-1.1,0-2.1,0.2-3,0.6v-0.7
	h-4.4v14.4h4.4v-8.8l1.9-0.9c0.2-0.1,0.5-0.2,0.9-0.2c0.4,0,0.7,0.1,0.9,0.2c0.2,0.1,0.3,0.3,0.5,0.6c0.2,0.3,0.3,0.5,0.3,0.8v8.4
	h4.5V19.4z"/>
</svg>
